<?xml version="1.0" encoding="UTF-8" standalone="no"?>
<!DOCTYPE svg PUBLIC "-//W3C//DTD SVG 1.1//EN"
 "http://www.w3.org/Graphics/SVG/1.1/DTD/svg11.dtd">
<!-- Generated by graphviz version 2.42.4 (0)
 -->
<!-- Title: gantry Pages: 1 -->
<svg width="140pt" height="188pt"
 viewBox="0.00 0.00 140.00 188.00" xmlns="http://www.w3.org/2000/svg" xmlns:xlink="http://www.w3.org/1999/xlink">
<g id="graph0" class="graph" transform="scale(1 1) rotate(0) translate(4 184)">
<title>gantry</title>
<polygon fill="white" stroke="transparent" points="-4,4 -4,-184 136,-184 136,4 -4,4"/>
<!-- service -->
<g id="node1" class="node">
<title>service</title>
<ellipse fill="none" stroke="black" cx="66" cy="-162" rx="44.39" ry="18"/>
<text text-anchor="middle" x="66" y="-158.3" font-family="Times,serif" font-size="14.00">service</text>
</g>
<!-- wait_for_service -->
<g id="node2" class="node">
<title>wait_for_service</title>
<polygon fill="none" stroke="black" points="132,-108 0,-108 0,-72 132,-72 132,-108"/>
<text text-anchor="middle" x="66" y="-86.3" font-family="Times,serif" font-size="14.00">wait_for_service</text>
</g>
<!-- service&#45;&gt;wait_for_service -->
<g id="edge1" class="edge">
<title>service&#45;&gt;wait_for_service</title>
<path fill="none" stroke="black" d="M66,-143.7C66,-135.98 66,-126.71 66,-118.11"/>
<polygon fill="black" stroke="black" points="69.5,-118.1 66,-108.1 62.5,-118.1 69.5,-118.1"/>
</g>
<!-- test_2 -->
<g id="node3" class="node">
<title>test_2</title>
<polygon fill="none" stroke="black" points="96,-36 36,-36 36,0 96,0 96,-36"/>
<text text-anchor="middle" x="66" y="-14.3" font-family="Times,serif" font-size="14.00">test_2</text>
</g>
<!-- wait_for_service&#45;&gt;test_2 -->
<g id="edge2" class="edge">
<title>wait_for_service&#45;&gt;test_2</title>
<path fill="none" stroke="black" d="M66,-71.7C66,-63.98 66,-54.71 66,-46.11"/>
<polygon fill="black" stroke="black" points="69.5,-46.1 66,-36.1 62.5,-46.1 69.5,-46.1"/>
</g>
</g>
</svg>
