<?xml version="1.0" encoding="UTF-8" standalone="no"?>
<!DOCTYPE svg PUBLIC "-//W3C//DTD SVG 1.1//EN"
 "http://www.w3.org/Graphics/SVG/1.1/DTD/svg11.dtd">
<!-- Generated by graphviz version 2.40.1 (0)
 -->
<!-- Title: gantry Pages: 1 -->
<svg width="142pt" height="188pt"
 viewBox="0.00 0.00 142.00 188.00" xmlns="http://www.w3.org/2000/svg" xmlns:xlink="http://www.w3.org/1999/xlink">
<g id="graph0" class="graph" transform="scale(1 1) rotate(0) translate(4 184)">
<title>gantry</title>
<polygon fill="#ffffff" stroke="transparent" points="-4,4 -4,-184 138,-184 138,4 -4,4"/>
<!-- service -->
<g id="node1" class="node">
<title>service</title>
<ellipse fill="none" stroke="#000000" cx="67" cy="-162" rx="44.393" ry="18"/>
<text text-anchor="middle" x="67" y="-158.3" font-family="Times,serif" font-size="14.00" fill="#000000">service</text>
</g>
<!-- wait_for_service -->
<g id="node2" class="node">
<title>wait_for_service</title>
<polygon fill="none" stroke="#000000" points="134,-108 0,-108 0,-72 134,-72 134,-108"/>
<text text-anchor="middle" x="67" y="-86.3" font-family="Times,serif" font-size="14.00" fill="#000000">wait_for_service</text>
</g>
<!-- wait_for_service&#45;&gt;service -->
<g id="edge1" class="edge">
<title>wait_for_service&#45;&gt;service</title>
<path fill="none" stroke="#000000" d="M67,-108.1686C67,-115.869 67,-125.0257 67,-133.5834"/>
<polygon fill="#000000" stroke="#000000" points="63.5001,-133.5867 67,-143.5867 70.5001,-133.5868 63.5001,-133.5867"/>
</g>
<!-- test_2 -->
<g id="node3" class="node">
<title>test_2</title>
<polygon fill="none" stroke="#000000" points="97.5,-36 36.5,-36 36.5,0 97.5,0 97.5,-36"/>
<text text-anchor="middle" x="67" y="-14.3" font-family="Times,serif" font-size="14.00" fill="#000000">test_2</text>
</g>
<!-- test_2&#45;&gt;wait_for_service -->
<g id="edge2" class="edge">
<title>test_2&#45;&gt;wait_for_service</title>
<path fill="none" stroke="#000000" d="M67,-36.1686C67,-43.869 67,-53.0257 67,-61.5834"/>
<polygon fill="#000000" stroke="#000000" points="63.5001,-61.5867 67,-71.5867 70.5001,-61.5868 63.5001,-61.5867"/>
</g>
</g>
</svg>
