<?xml version="1.0" encoding="UTF-8" standalone="no"?>
<!DOCTYPE svg PUBLIC "-//W3C//DTD SVG 1.1//EN"
 "http://www.w3.org/Graphics/SVG/1.1/DTD/svg11.dtd">
<!-- Generated by graphviz version 2.42.4 (0)
 -->
<!-- Title: gantry Pages: 1 -->
<svg width="140pt" height="404pt"
 viewBox="0.00 0.00 140.00 404.00" xmlns="http://www.w3.org/2000/svg" xmlns:xlink="http://www.w3.org/1999/xlink">
<g id="graph0" class="graph" transform="scale(1 1) rotate(0) translate(4 400)">
<title>gantry</title>
<polygon fill="white" stroke="transparent" points="-4,4 -4,-400 136,-400 136,4 -4,4"/>
<!-- service -->
<g id="node1" class="node">
<title>service</title>
<ellipse fill="none" stroke="black" cx="66" cy="-378" rx="44.39" ry="18"/>
<text text-anchor="middle" x="66" y="-374.3" font-family="Times,serif" font-size="14.00">service</text>
</g>
<!-- wait_for_service -->
<g id="node2" class="node">
<title>wait_for_service</title>
<polygon fill="none" stroke="black" points="132,-324 0,-324 0,-288 132,-288 132,-324"/>
<text text-anchor="middle" x="66" y="-302.3" font-family="Times,serif" font-size="14.00">wait_for_service</text>
</g>
<!-- service&#45;&gt;wait_for_service -->
<g id="edge1" class="edge">
<title>service&#45;&gt;wait_for_service</title>
<path fill="none" stroke="black" d="M66,-359.7C66,-351.98 66,-342.71 66,-334.11"/>
<polygon fill="black" stroke="black" points="69.5,-334.1 66,-324.1 62.5,-334.1 69.5,-334.1"/>
</g>
<!-- test_0 -->
<g id="node3" class="node">
<title>test_0</title>
<polygon fill="none" stroke="black" stroke-dasharray="5,2" points="96,-252 36,-252 36,-216 96,-216 96,-252"/>
<text text-anchor="middle" x="66" y="-230.3" font-family="Times,serif" font-size="14.00">test_0</text>
</g>
<!-- wait_for_service&#45;&gt;test_0 -->
<g id="edge2" class="edge">
<title>wait_for_service&#45;&gt;test_0</title>
<path fill="none" stroke="black" d="M66,-287.7C66,-279.98 66,-270.71 66,-262.11"/>
<polygon fill="black" stroke="black" points="69.5,-262.1 66,-252.1 62.5,-262.1 69.5,-262.1"/>
</g>
<!-- test_1 -->
<g id="node4" class="node">
<title>test_1</title>
<polygon fill="none" stroke="black" stroke-dasharray="5,2" points="96,-180 36,-180 36,-144 96,-144 96,-180"/>
<text text-anchor="middle" x="66" y="-158.3" font-family="Times,serif" font-size="14.00">test_1</text>
</g>
<!-- test_0&#45;&gt;test_1 -->
<g id="edge3" class="edge">
<title>test_0&#45;&gt;test_1</title>
<path fill="none" stroke="black" d="M66,-215.7C66,-207.98 66,-198.71 66,-190.11"/>
<polygon fill="black" stroke="black" points="69.5,-190.1 66,-180.1 62.5,-190.1 69.5,-190.1"/>
</g>
<!-- test_2 -->
<g id="node5" class="node">
<title>test_2</title>
<polygon fill="none" stroke="black" points="96,-108 36,-108 36,-72 96,-72 96,-108"/>
<text text-anchor="middle" x="66" y="-86.3" font-family="Times,serif" font-size="14.00">test_2</text>
</g>
<!-- test_1&#45;&gt;test_2 -->
<g id="edge4" class="edge">
<title>test_1&#45;&gt;test_2</title>
<path fill="none" stroke="black" d="M66,-143.7C66,-135.98 66,-126.71 66,-118.11"/>
<polygon fill="black" stroke="black" points="69.5,-118.1 66,-108.1 62.5,-118.1 69.5,-118.1"/>
</g>
<!-- test_3 -->
<g id="node6" class="node">
<title>test_3</title>
<polygon fill="none" stroke="black" points="96,-36 36,-36 36,0 96,0 96,-36"/>
<text text-anchor="middle" x="66" y="-14.3" font-family="Times,serif" font-size="14.00">test_3</text>
</g>
<!-- test_2&#45;&gt;test_3 -->
<g id="edge5" class="edge">
<title>test_2&#45;&gt;test_3</title>
<path fill="none" stroke="black" d="M66,-71.7C66,-63.98 66,-54.71 66,-46.11"/>
<polygon fill="black" stroke="black" points="69.5,-46.1 66,-36.1 62.5,-46.1 69.5,-46.1"/>
</g>
</g>
</svg>
