<?xml version="1.0" encoding="UTF-8" standalone="no"?>
<!DOCTYPE svg PUBLIC "-//W3C//DTD SVG 1.1//EN"
 "http://www.w3.org/Graphics/SVG/1.1/DTD/svg11.dtd">
<!-- Generated by graphviz version 2.40.1 (0)
 -->
<!-- Title: gantry Pages: 1 -->
<svg width="142pt" height="404pt"
 viewBox="0.00 0.00 142.00 404.00" xmlns="http://www.w3.org/2000/svg" xmlns:xlink="http://www.w3.org/1999/xlink">
<g id="graph0" class="graph" transform="scale(1 1) rotate(0) translate(4 400)">
<title>gantry</title>
<polygon fill="#ffffff" stroke="transparent" points="-4,4 -4,-400 138,-400 138,4 -4,4"/>
<!-- service -->
<g id="node1" class="node">
<title>service</title>
<ellipse fill="none" stroke="#000000" cx="67" cy="-378" rx="44.393" ry="18"/>
<text text-anchor="middle" x="67" y="-374.3" font-family="Times,serif" font-size="14.00" fill="#000000">service</text>
</g>
<!-- wait_for_service -->
<g id="node2" class="node">
<title>wait_for_service</title>
<polygon fill="none" stroke="#000000" points="134,-324 0,-324 0,-288 134,-288 134,-324"/>
<text text-anchor="middle" x="67" y="-302.3" font-family="Times,serif" font-size="14.00" fill="#000000">wait_for_service</text>
</g>
<!-- wait_for_service&#45;&gt;service -->
<g id="edge1" class="edge">
<title>wait_for_service&#45;&gt;service</title>
<path fill="none" stroke="#000000" d="M67,-324.1686C67,-331.869 67,-341.0257 67,-349.5834"/>
<polygon fill="#000000" stroke="#000000" points="63.5001,-349.5867 67,-359.5867 70.5001,-349.5868 63.5001,-349.5867"/>
</g>
<!-- test_0 -->
<g id="node3" class="node">
<title>test_0</title>
<polygon fill="none" stroke="#000000" points="97.5,-252 36.5,-252 36.5,-216 97.5,-216 97.5,-252"/>
<text text-anchor="middle" x="67" y="-230.3" font-family="Times,serif" font-size="14.00" fill="#000000">test_0</text>
</g>
<!-- test_0&#45;&gt;wait_for_service -->
<g id="edge2" class="edge">
<title>test_0&#45;&gt;wait_for_service</title>
<path fill="none" stroke="#000000" d="M67,-252.1686C67,-259.869 67,-269.0257 67,-277.5834"/>
<polygon fill="#000000" stroke="#000000" points="63.5001,-277.5867 67,-287.5867 70.5001,-277.5868 63.5001,-277.5867"/>
</g>
<!-- test_1 -->
<g id="node4" class="node">
<title>test_1</title>
<polygon fill="none" stroke="#000000" points="97.5,-180 36.5,-180 36.5,-144 97.5,-144 97.5,-180"/>
<text text-anchor="middle" x="67" y="-158.3" font-family="Times,serif" font-size="14.00" fill="#000000">test_1</text>
</g>
<!-- test_1&#45;&gt;test_0 -->
<g id="edge3" class="edge">
<title>test_1&#45;&gt;test_0</title>
<path fill="none" stroke="#000000" d="M67,-180.1686C67,-187.869 67,-197.0257 67,-205.5834"/>
<polygon fill="#000000" stroke="#000000" points="63.5001,-205.5867 67,-215.5867 70.5001,-205.5868 63.5001,-205.5867"/>
</g>
<!-- test_2 -->
<g id="node5" class="node">
<title>test_2</title>
<polygon fill="none" stroke="#000000" points="97.5,-108 36.5,-108 36.5,-72 97.5,-72 97.5,-108"/>
<text text-anchor="middle" x="67" y="-86.3" font-family="Times,serif" font-size="14.00" fill="#000000">test_2</text>
</g>
<!-- test_2&#45;&gt;test_1 -->
<g id="edge4" class="edge">
<title>test_2&#45;&gt;test_1</title>
<path fill="none" stroke="#000000" d="M67,-108.1686C67,-115.869 67,-125.0257 67,-133.5834"/>
<polygon fill="#000000" stroke="#000000" points="63.5001,-133.5867 67,-143.5867 70.5001,-133.5868 63.5001,-133.5867"/>
</g>
<!-- test_3 -->
<g id="node6" class="node">
<title>test_3</title>
<polygon fill="none" stroke="#000000" points="97.5,-36 36.5,-36 36.5,0 97.5,0 97.5,-36"/>
<text text-anchor="middle" x="67" y="-14.3" font-family="Times,serif" font-size="14.00" fill="#000000">test_3</text>
</g>
<!-- test_3&#45;&gt;test_2 -->
<g id="edge5" class="edge">
<title>test_3&#45;&gt;test_2</title>
<path fill="none" stroke="#000000" d="M67,-36.1686C67,-43.869 67,-53.0257 67,-61.5834"/>
<polygon fill="#000000" stroke="#000000" points="63.5001,-61.5867 67,-71.5867 70.5001,-61.5868 63.5001,-61.5867"/>
</g>
</g>
</svg>
