<?xml version="1.0" encoding="UTF-8" standalone="no"?>
<!DOCTYPE svg PUBLIC "-//W3C//DTD SVG 1.1//EN"
 "http://www.w3.org/Graphics/SVG/1.1/DTD/svg11.dtd">
<!-- Generated by graphviz version 2.40.1 (0)
 -->
<!-- Title: gantry Pages: 1 -->
<svg width="282pt" height="476pt"
 viewBox="0.00 0.00 282.00 476.00" xmlns="http://www.w3.org/2000/svg" xmlns:xlink="http://www.w3.org/1999/xlink">
<g id="graph0" class="graph" transform="scale(1 1) rotate(0) translate(4 472)">
<title>gantry</title>
<polygon fill="#ffffff" stroke="transparent" points="-4,4 -4,-472 278,-472 278,4 -4,4"/>
<!-- download_data -->
<g id="node1" class="node">
<title>download_data</title>
<polygon fill="none" stroke="#000000" points="126,-468 2,-468 2,-432 126,-432 126,-468"/>
<text text-anchor="middle" x="64" y="-446.3" font-family="Times,serif" font-size="14.00" fill="#000000">download_data</text>
</g>
<!-- unzip_data -->
<g id="node2" class="node">
<title>unzip_data</title>
<polygon fill="none" stroke="#000000" points="111.5,-396 16.5,-396 16.5,-360 111.5,-360 111.5,-396"/>
<text text-anchor="middle" x="64" y="-374.3" font-family="Times,serif" font-size="14.00" fill="#000000">unzip_data</text>
</g>
<!-- unzip_data&#45;&gt;download_data -->
<g id="edge1" class="edge">
<title>unzip_data&#45;&gt;download_data</title>
<path fill="none" stroke="#000000" d="M64,-396.1686C64,-403.869 64,-413.0257 64,-421.5834"/>
<polygon fill="#000000" stroke="#000000" points="60.5001,-421.5867 64,-431.5867 67.5001,-421.5868 60.5001,-421.5867"/>
</g>
<!-- build_index -->
<g id="node3" class="node">
<title>build_index</title>
<polygon fill="none" stroke="#000000" points="113.5,-324 14.5,-324 14.5,-288 113.5,-288 113.5,-324"/>
<text text-anchor="middle" x="64" y="-302.3" font-family="Times,serif" font-size="14.00" fill="#000000">build_index</text>
</g>
<!-- build_index&#45;&gt;unzip_data -->
<g id="edge2" class="edge">
<title>build_index&#45;&gt;unzip_data</title>
<path fill="none" stroke="#000000" d="M64,-324.1686C64,-331.869 64,-341.0257 64,-349.5834"/>
<polygon fill="#000000" stroke="#000000" points="60.5001,-349.5867 64,-359.5867 67.5001,-349.5868 60.5001,-349.5867"/>
</g>
<!-- qlever -->
<g id="node4" class="node">
<title>qlever</title>
<ellipse fill="none" stroke="#000000" cx="64" cy="-234" rx="40.0939" ry="18"/>
<text text-anchor="middle" x="64" y="-230.3" font-family="Times,serif" font-size="14.00" fill="#000000">qlever</text>
</g>
<!-- qlever&#45;&gt;build_index -->
<g id="edge3" class="edge">
<title>qlever&#45;&gt;build_index</title>
<path fill="none" stroke="#000000" d="M64,-252.1686C64,-259.869 64,-269.0257 64,-277.5834"/>
<polygon fill="#000000" stroke="#000000" points="60.5001,-277.5867 64,-287.5867 67.5001,-277.5868 60.5001,-277.5867"/>
</g>
<!-- wait_for_qlever -->
<g id="node5" class="node">
<title>wait_for_qlever</title>
<polygon fill="none" stroke="#000000" points="128,-180 0,-180 0,-144 128,-144 128,-180"/>
<text text-anchor="middle" x="64" y="-158.3" font-family="Times,serif" font-size="14.00" fill="#000000">wait_for_qlever</text>
</g>
<!-- wait_for_qlever&#45;&gt;qlever -->
<g id="edge4" class="edge">
<title>wait_for_qlever&#45;&gt;qlever</title>
<path fill="none" stroke="#000000" d="M64,-180.1686C64,-187.869 64,-197.0257 64,-205.5834"/>
<polygon fill="#000000" stroke="#000000" points="60.5001,-205.5867 64,-215.5867 67.5001,-205.5868 60.5001,-205.5867"/>
</g>
<!-- download_tests -->
<g id="node6" class="node">
<title>download_tests</title>
<polygon fill="none" stroke="#000000" points="274,-180 146,-180 146,-144 274,-144 274,-180"/>
<text text-anchor="middle" x="210" y="-158.3" font-family="Times,serif" font-size="14.00" fill="#000000">download_tests</text>
</g>
<!-- run_queries -->
<g id="node7" class="node">
<title>run_queries</title>
<polygon fill="none" stroke="#000000" points="188,-108 86,-108 86,-72 188,-72 188,-108"/>
<text text-anchor="middle" x="137" y="-86.3" font-family="Times,serif" font-size="14.00" fill="#000000">run_queries</text>
</g>
<!-- run_queries&#45;&gt;wait_for_qlever -->
<g id="edge5" class="edge">
<title>run_queries&#45;&gt;wait_for_qlever</title>
<path fill="none" stroke="#000000" d="M118.579,-108.1686C109.8471,-116.781 99.2683,-127.2149 89.7577,-136.5952"/>
<polygon fill="#000000" stroke="#000000" points="87.077,-134.3231 82.4151,-143.8372 91.9925,-139.3069 87.077,-134.3231"/>
</g>
<!-- run_queries&#45;&gt;download_tests -->
<g id="edge6" class="edge">
<title>run_queries&#45;&gt;download_tests</title>
<path fill="none" stroke="#000000" d="M155.421,-108.1686C164.1529,-116.781 174.7317,-127.2149 184.2423,-136.5952"/>
<polygon fill="#000000" stroke="#000000" points="182.0075,-139.3069 191.5849,-143.8372 186.923,-134.3231 182.0075,-139.3069"/>
</g>
<!-- clean -->
<g id="node8" class="node">
<title>clean</title>
<polygon fill="none" stroke="#000000" points="164.5,-36 109.5,-36 109.5,0 164.5,0 164.5,-36"/>
<text text-anchor="middle" x="137" y="-14.3" font-family="Times,serif" font-size="14.00" fill="#000000">clean</text>
</g>
<!-- clean&#45;&gt;run_queries -->
<g id="edge7" class="edge">
<title>clean&#45;&gt;run_queries</title>
<path fill="none" stroke="#000000" d="M137,-36.1686C137,-43.869 137,-53.0257 137,-61.5834"/>
<polygon fill="#000000" stroke="#000000" points="133.5001,-61.5867 137,-71.5867 140.5001,-61.5868 133.5001,-61.5867"/>
</g>
</g>
</svg>
