<?xml version="1.0" encoding="UTF-8" standalone="no"?>
<!DOCTYPE svg PUBLIC "-//W3C//DTD SVG 1.1//EN"
 "http://www.w3.org/Graphics/SVG/1.1/DTD/svg11.dtd">
<!-- Generated by graphviz version 2.42.4 (0)
 -->
<!-- Title: gantry Pages: 1 -->
<svg width="137pt" height="404pt"
 viewBox="0.00 0.00 137.00 404.00" xmlns="http://www.w3.org/2000/svg" xmlns:xlink="http://www.w3.org/1999/xlink">
<g id="graph0" class="graph" transform="scale(1 1) rotate(0) translate(4 400)">
<title>gantry</title>
<polygon fill="white" stroke="transparent" points="-4,4 -4,-400 133,-400 133,4 -4,4"/>
<!-- download_input -->
<g id="node1" class="node">
<title>download_input</title>
<polygon fill="none" stroke="black" points="129,-396 0,-396 0,-360 129,-360 129,-396"/>
<text text-anchor="middle" x="64.5" y="-374.3" font-family="Times,serif" font-size="14.00">download_input</text>
</g>
<!-- unzip_input -->
<g id="node2" class="node">
<title>unzip_input</title>
<polygon fill="none" stroke="black" points="114.5,-324 14.5,-324 14.5,-288 114.5,-288 114.5,-324"/>
<text text-anchor="middle" x="64.5" y="-302.3" font-family="Times,serif" font-size="14.00">unzip_input</text>
</g>
<!-- download_input&#45;&gt;unzip_input -->
<g id="edge1" class="edge">
<title>download_input&#45;&gt;unzip_input</title>
<path fill="none" stroke="black" d="M64.5,-359.7C64.5,-351.98 64.5,-342.71 64.5,-334.11"/>
<polygon fill="black" stroke="black" points="68,-334.1 64.5,-324.1 61,-334.1 68,-334.1"/>
</g>
<!-- build_index -->
<g id="node3" class="node">
<title>build_index</title>
<polygon fill="none" stroke="black" points="113.5,-252 15.5,-252 15.5,-216 113.5,-216 113.5,-252"/>
<text text-anchor="middle" x="64.5" y="-230.3" font-family="Times,serif" font-size="14.00">build_index</text>
</g>
<!-- unzip_input&#45;&gt;build_index -->
<g id="edge2" class="edge">
<title>unzip_input&#45;&gt;build_index</title>
<path fill="none" stroke="black" d="M64.5,-287.7C64.5,-279.98 64.5,-270.71 64.5,-262.11"/>
<polygon fill="black" stroke="black" points="68,-262.1 64.5,-252.1 61,-262.1 68,-262.1"/>
</g>
<!-- qlever -->
<g id="node4" class="node">
<title>qlever</title>
<ellipse fill="none" stroke="black" cx="64.5" cy="-162" rx="40.09" ry="18"/>
<text text-anchor="middle" x="64.5" y="-158.3" font-family="Times,serif" font-size="14.00">qlever</text>
</g>
<!-- build_index&#45;&gt;qlever -->
<g id="edge3" class="edge">
<title>build_index&#45;&gt;qlever</title>
<path fill="none" stroke="black" d="M64.5,-215.7C64.5,-207.98 64.5,-198.71 64.5,-190.11"/>
<polygon fill="black" stroke="black" points="68,-190.1 64.5,-180.1 61,-190.1 68,-190.1"/>
</g>
<!-- wait_for_qlever -->
<g id="node5" class="node">
<title>wait_for_qlever</title>
<polygon fill="none" stroke="black" points="127.5,-108 1.5,-108 1.5,-72 127.5,-72 127.5,-108"/>
<text text-anchor="middle" x="64.5" y="-86.3" font-family="Times,serif" font-size="14.00">wait_for_qlever</text>
</g>
<!-- qlever&#45;&gt;wait_for_qlever -->
<g id="edge4" class="edge">
<title>qlever&#45;&gt;wait_for_qlever</title>
<path fill="none" stroke="black" d="M64.5,-143.7C64.5,-135.98 64.5,-126.71 64.5,-118.11"/>
<polygon fill="black" stroke="black" points="68,-118.1 64.5,-108.1 61,-118.1 68,-118.1"/>
</g>
<!-- run_queries -->
<g id="node6" class="node">
<title>run_queries</title>
<polygon fill="none" stroke="black" points="115,-36 14,-36 14,0 115,0 115,-36"/>
<text text-anchor="middle" x="64.5" y="-14.3" font-family="Times,serif" font-size="14.00">run_queries</text>
</g>
<!-- wait_for_qlever&#45;&gt;run_queries -->
<g id="edge5" class="edge">
<title>wait_for_qlever&#45;&gt;run_queries</title>
<path fill="none" stroke="black" d="M64.5,-71.7C64.5,-63.98 64.5,-54.71 64.5,-46.11"/>
<polygon fill="black" stroke="black" points="68,-46.1 64.5,-36.1 61,-46.1 68,-46.1"/>
</g>
</g>
</svg>
