<?xml version="1.0" encoding="UTF-8" standalone="no"?>
<!DOCTYPE svg PUBLIC "-//W3C//DTD SVG 1.1//EN"
 "http://www.w3.org/Graphics/SVG/1.1/DTD/svg11.dtd">
<!-- Generated by graphviz version 2.40.1 (20161225.0304)
 -->
<!-- Title: gantry Pages: 1 -->
<svg width="120pt" height="476pt"
 viewBox="0.00 0.00 120.00 476.00" xmlns="http://www.w3.org/2000/svg" xmlns:xlink="http://www.w3.org/1999/xlink">
<g id="graph0" class="graph" transform="scale(1 1) rotate(0) translate(4 472)">
<title>gantry</title>
<polygon fill="#ffffff" stroke="transparent" points="-4,4 -4,-472 116,-472 116,4 -4,4"/>
<!-- download_input -->
<g id="node1" class="node">
<title>download_input</title>
<polygon fill="none" stroke="#000000" points="112,-468 0,-468 0,-432 112,-432 112,-468"/>
<text text-anchor="middle" x="56" y="-446.3" font-family="Times,serif" font-size="14.00" fill="#000000">download_input</text>
</g>
<!-- unzip_input -->
<g id="node2" class="node">
<title>unzip_input</title>
<polygon fill="none" stroke="#000000" points="99,-396 13,-396 13,-360 99,-360 99,-396"/>
<text text-anchor="middle" x="56" y="-374.3" font-family="Times,serif" font-size="14.00" fill="#000000">unzip_input</text>
</g>
<!-- unzip_input&#45;&gt;download_input -->
<g id="edge1" class="edge">
<title>unzip_input&#45;&gt;download_input</title>
<path fill="none" stroke="#000000" d="M56,-396.1686C56,-403.869 56,-413.0257 56,-421.5834"/>
<polygon fill="#000000" stroke="#000000" points="52.5001,-421.5867 56,-431.5867 59.5001,-421.5868 52.5001,-421.5867"/>
</g>
<!-- build_index -->
<g id="node3" class="node">
<title>build_index</title>
<polygon fill="none" stroke="#000000" points="99,-324 13,-324 13,-288 99,-288 99,-324"/>
<text text-anchor="middle" x="56" y="-302.3" font-family="Times,serif" font-size="14.00" fill="#000000">build_index</text>
</g>
<!-- build_index&#45;&gt;unzip_input -->
<g id="edge2" class="edge">
<title>build_index&#45;&gt;unzip_input</title>
<path fill="none" stroke="#000000" d="M56,-324.1686C56,-331.869 56,-341.0257 56,-349.5834"/>
<polygon fill="#000000" stroke="#000000" points="52.5001,-349.5867 56,-359.5867 59.5001,-349.5868 52.5001,-349.5867"/>
</g>
<!-- qlever -->
<g id="node4" class="node">
<title>qlever</title>
<ellipse fill="none" stroke="#000000" cx="56" cy="-234" rx="33.5952" ry="18"/>
<text text-anchor="middle" x="56" y="-230.3" font-family="Times,serif" font-size="14.00" fill="#000000">qlever</text>
</g>
<!-- qlever&#45;&gt;build_index -->
<g id="edge3" class="edge">
<title>qlever&#45;&gt;build_index</title>
<path fill="none" stroke="#000000" d="M56,-252.1686C56,-259.869 56,-269.0257 56,-277.5834"/>
<polygon fill="#000000" stroke="#000000" points="52.5001,-277.5867 56,-287.5867 59.5001,-277.5868 52.5001,-277.5867"/>
</g>
<!-- wait_for_qlever -->
<g id="node5" class="node">
<title>wait_for_qlever</title>
<polygon fill="none" stroke="#000000" points="109.5,-180 2.5,-180 2.5,-144 109.5,-144 109.5,-180"/>
<text text-anchor="middle" x="56" y="-158.3" font-family="Times,serif" font-size="14.00" fill="#000000">wait_for_qlever</text>
</g>
<!-- wait_for_qlever&#45;&gt;qlever -->
<g id="edge4" class="edge">
<title>wait_for_qlever&#45;&gt;qlever</title>
<path fill="none" stroke="#000000" d="M56,-180.1686C56,-187.869 56,-197.0257 56,-205.5834"/>
<polygon fill="#000000" stroke="#000000" points="52.5001,-205.5867 56,-215.5867 59.5001,-205.5868 52.5001,-205.5867"/>
</g>
<!-- run_queries -->
<g id="node6" class="node">
<title>run_queries</title>
<polygon fill="none" stroke="#000000" points="98,-108 14,-108 14,-72 98,-72 98,-108"/>
<text text-anchor="middle" x="56" y="-86.3" font-family="Times,serif" font-size="14.00" fill="#000000">run_queries</text>
</g>
<!-- run_queries&#45;&gt;wait_for_qlever -->
<g id="edge5" class="edge">
<title>run_queries&#45;&gt;wait_for_qlever</title>
<path fill="none" stroke="#000000" d="M56,-108.1686C56,-115.869 56,-125.0257 56,-133.5834"/>
<polygon fill="#000000" stroke="#000000" points="52.5001,-133.5867 56,-143.5867 59.5001,-133.5868 52.5001,-133.5867"/>
</g>
<!-- clean -->
<g id="node7" class="node">
<title>clean</title>
<polygon fill="none" stroke="#000000" points="83,-36 29,-36 29,0 83,0 83,-36"/>
<text text-anchor="middle" x="56" y="-14.3" font-family="Times,serif" font-size="14.00" fill="#000000">clean</text>
</g>
<!-- clean&#45;&gt;run_queries -->
<g id="edge6" class="edge">
<title>clean&#45;&gt;run_queries</title>
<path fill="none" stroke="#000000" d="M56,-36.1686C56,-43.869 56,-53.0257 56,-61.5834"/>
<polygon fill="#000000" stroke="#000000" points="52.5001,-61.5867 56,-71.5867 59.5001,-61.5868 52.5001,-61.5867"/>
</g>
</g>
</svg>
