<?xml version="1.0" encoding="UTF-8" standalone="no"?>
<!DOCTYPE svg PUBLIC "-//W3C//DTD SVG 1.1//EN"
 "http://www.w3.org/Graphics/SVG/1.1/DTD/svg11.dtd">
<!-- Generated by graphviz version 2.40.1 (0)
 -->
<!-- Title: gantry Pages: 1 -->
<svg width="138pt" height="404pt"
 viewBox="0.00 0.00 138.00 404.00" xmlns="http://www.w3.org/2000/svg" xmlns:xlink="http://www.w3.org/1999/xlink">
<g id="graph0" class="graph" transform="scale(1 1) rotate(0) translate(4 400)">
<title>gantry</title>
<polygon fill="#ffffff" stroke="transparent" points="-4,4 -4,-400 134,-400 134,4 -4,4"/>
<!-- download_input -->
<g id="node1" class="node">
<title>download_input</title>
<polygon fill="none" stroke="#000000" points="130,-396 0,-396 0,-360 130,-360 130,-396"/>
<text text-anchor="middle" x="65" y="-374.3" font-family="Times,serif" font-size="14.00" fill="#000000">download_input</text>
</g>
<!-- unzip_input -->
<g id="node2" class="node">
<title>unzip_input</title>
<polygon fill="none" stroke="#000000" points="115.5,-324 14.5,-324 14.5,-288 115.5,-288 115.5,-324"/>
<text text-anchor="middle" x="65" y="-302.3" font-family="Times,serif" font-size="14.00" fill="#000000">unzip_input</text>
</g>
<!-- unzip_input&#45;&gt;download_input -->
<g id="edge1" class="edge">
<title>unzip_input&#45;&gt;download_input</title>
<path fill="none" stroke="#000000" d="M65,-324.1686C65,-331.869 65,-341.0257 65,-349.5834"/>
<polygon fill="#000000" stroke="#000000" points="61.5001,-349.5867 65,-359.5867 68.5001,-349.5868 61.5001,-349.5867"/>
</g>
<!-- build_index -->
<g id="node3" class="node">
<title>build_index</title>
<polygon fill="none" stroke="#000000" points="114.5,-252 15.5,-252 15.5,-216 114.5,-216 114.5,-252"/>
<text text-anchor="middle" x="65" y="-230.3" font-family="Times,serif" font-size="14.00" fill="#000000">build_index</text>
</g>
<!-- build_index&#45;&gt;unzip_input -->
<g id="edge2" class="edge">
<title>build_index&#45;&gt;unzip_input</title>
<path fill="none" stroke="#000000" d="M65,-252.1686C65,-259.869 65,-269.0257 65,-277.5834"/>
<polygon fill="#000000" stroke="#000000" points="61.5001,-277.5867 65,-287.5867 68.5001,-277.5868 61.5001,-277.5867"/>
</g>
<!-- qlever -->
<g id="node4" class="node">
<title>qlever</title>
<ellipse fill="none" stroke="#000000" cx="65" cy="-162" rx="40.0939" ry="18"/>
<text text-anchor="middle" x="65" y="-158.3" font-family="Times,serif" font-size="14.00" fill="#000000">qlever</text>
</g>
<!-- qlever&#45;&gt;build_index -->
<g id="edge3" class="edge">
<title>qlever&#45;&gt;build_index</title>
<path fill="none" stroke="#000000" d="M65,-180.1686C65,-187.869 65,-197.0257 65,-205.5834"/>
<polygon fill="#000000" stroke="#000000" points="61.5001,-205.5867 65,-215.5867 68.5001,-205.5868 61.5001,-205.5867"/>
</g>
<!-- wait_for_qlever -->
<g id="node5" class="node">
<title>wait_for_qlever</title>
<polygon fill="none" stroke="#000000" points="129,-108 1,-108 1,-72 129,-72 129,-108"/>
<text text-anchor="middle" x="65" y="-86.3" font-family="Times,serif" font-size="14.00" fill="#000000">wait_for_qlever</text>
</g>
<!-- wait_for_qlever&#45;&gt;qlever -->
<g id="edge4" class="edge">
<title>wait_for_qlever&#45;&gt;qlever</title>
<path fill="none" stroke="#000000" d="M65,-108.1686C65,-115.869 65,-125.0257 65,-133.5834"/>
<polygon fill="#000000" stroke="#000000" points="61.5001,-133.5867 65,-143.5867 68.5001,-133.5868 61.5001,-133.5867"/>
</g>
<!-- run_queries -->
<g id="node6" class="node">
<title>run_queries</title>
<polygon fill="none" stroke="#000000" points="116,-36 14,-36 14,0 116,0 116,-36"/>
<text text-anchor="middle" x="65" y="-14.3" font-family="Times,serif" font-size="14.00" fill="#000000">run_queries</text>
</g>
<!-- run_queries&#45;&gt;wait_for_qlever -->
<g id="edge5" class="edge">
<title>run_queries&#45;&gt;wait_for_qlever</title>
<path fill="none" stroke="#000000" d="M65,-36.1686C65,-43.869 65,-53.0257 65,-61.5834"/>
<polygon fill="#000000" stroke="#000000" points="61.5001,-61.5867 65,-71.5867 68.5001,-61.5868 61.5001,-61.5867"/>
</g>
</g>
</svg>
