<?xml version="1.0" encoding="UTF-8" standalone="no"?>
<!DOCTYPE svg PUBLIC "-//W3C//DTD SVG 1.1//EN"
 "http://www.w3.org/Graphics/SVG/1.1/DTD/svg11.dtd">
<!-- Generated by graphviz version 2.40.1 (0)
 -->
<!-- Title: gantry Pages: 1 -->
<svg width="316pt" height="188pt"
 viewBox="0.00 0.00 315.50 188.00" xmlns="http://www.w3.org/2000/svg" xmlns:xlink="http://www.w3.org/1999/xlink">
<g id="graph0" class="graph" transform="scale(1 1) rotate(0) translate(4 184)">
<title>gantry</title>
<polygon fill="#ffffff" stroke="transparent" points="-4,4 -4,-184 311.5,-184 311.5,4 -4,4"/>
<!-- pipeline_a_step_0 -->
<g id="node1" class="node">
<title>pipeline_a_step_0</title>
<polygon fill="none" stroke="#000000" points="144,-180 0,-180 0,-144 144,-144 144,-180"/>
<text text-anchor="middle" x="72" y="-158.3" font-family="Times,serif" font-size="14.00" fill="#000000">pipeline_a_step_0</text>
</g>
<!-- pipeline_a_step_1 -->
<g id="node2" class="node">
<title>pipeline_a_step_1</title>
<polygon fill="none" stroke="#000000" points="144,-108 0,-108 0,-72 144,-72 144,-108"/>
<text text-anchor="middle" x="72" y="-86.3" font-family="Times,serif" font-size="14.00" fill="#000000">pipeline_a_step_1</text>
</g>
<!-- pipeline_a_step_1&#45;&gt;pipeline_a_step_0 -->
<g id="edge1" class="edge">
<title>pipeline_a_step_1&#45;&gt;pipeline_a_step_0</title>
<path fill="none" stroke="#000000" d="M72,-108.1686C72,-115.869 72,-125.0257 72,-133.5834"/>
<polygon fill="#000000" stroke="#000000" points="68.5001,-133.5867 72,-143.5867 75.5001,-133.5868 68.5001,-133.5867"/>
</g>
<!-- pipeline_a_step_2 -->
<g id="node3" class="node">
<title>pipeline_a_step_2</title>
<polygon fill="none" stroke="#000000" points="144,-36 0,-36 0,0 144,0 144,-36"/>
<text text-anchor="middle" x="72" y="-14.3" font-family="Times,serif" font-size="14.00" fill="#000000">pipeline_a_step_2</text>
</g>
<!-- pipeline_a_step_2&#45;&gt;pipeline_a_step_1 -->
<g id="edge2" class="edge">
<title>pipeline_a_step_2&#45;&gt;pipeline_a_step_1</title>
<path fill="none" stroke="#000000" d="M72,-36.1686C72,-43.869 72,-53.0257 72,-61.5834"/>
<polygon fill="#000000" stroke="#000000" points="68.5001,-61.5867 72,-71.5867 75.5001,-61.5868 68.5001,-61.5867"/>
</g>
<!-- pipeline_b_step_0 -->
<g id="node4" class="node">
<title>pipeline_b_step_0</title>
<polygon fill="none" stroke="#000000" points="307.5,-180 162.5,-180 162.5,-144 307.5,-144 307.5,-180"/>
<text text-anchor="middle" x="235" y="-158.3" font-family="Times,serif" font-size="14.00" fill="#000000">pipeline_b_step_0</text>
</g>
<!-- pipeline_b_step_1 -->
<g id="node5" class="node">
<title>pipeline_b_step_1</title>
<polygon fill="none" stroke="#000000" points="307.5,-108 162.5,-108 162.5,-72 307.5,-72 307.5,-108"/>
<text text-anchor="middle" x="235" y="-86.3" font-family="Times,serif" font-size="14.00" fill="#000000">pipeline_b_step_1</text>
</g>
<!-- pipeline_b_step_1&#45;&gt;pipeline_b_step_0 -->
<g id="edge3" class="edge">
<title>pipeline_b_step_1&#45;&gt;pipeline_b_step_0</title>
<path fill="none" stroke="#000000" d="M235,-108.1686C235,-115.869 235,-125.0257 235,-133.5834"/>
<polygon fill="#000000" stroke="#000000" points="231.5001,-133.5867 235,-143.5867 238.5001,-133.5868 231.5001,-133.5867"/>
</g>
<!-- pipeline_b_step_2 -->
<g id="node6" class="node">
<title>pipeline_b_step_2</title>
<polygon fill="none" stroke="#000000" points="307.5,-36 162.5,-36 162.5,0 307.5,0 307.5,-36"/>
<text text-anchor="middle" x="235" y="-14.3" font-family="Times,serif" font-size="14.00" fill="#000000">pipeline_b_step_2</text>
</g>
<!-- pipeline_b_step_2&#45;&gt;pipeline_b_step_1 -->
<g id="edge4" class="edge">
<title>pipeline_b_step_2&#45;&gt;pipeline_b_step_1</title>
<path fill="none" stroke="#000000" d="M235,-36.1686C235,-43.869 235,-53.0257 235,-61.5834"/>
<polygon fill="#000000" stroke="#000000" points="231.5001,-61.5867 235,-71.5867 238.5001,-61.5868 231.5001,-61.5867"/>
</g>
</g>
</svg>
