<?xml version="1.0" encoding="UTF-8" standalone="no"?>
<!DOCTYPE svg PUBLIC "-//W3C//DTD SVG 1.1//EN"
 "http://www.w3.org/Graphics/SVG/1.1/DTD/svg11.dtd">
<!-- Generated by graphviz version 2.42.4 (0)
 -->
<!-- Title: gantry Pages: 1 -->
<svg width="312pt" height="188pt"
 viewBox="0.00 0.00 311.50 188.00" xmlns="http://www.w3.org/2000/svg" xmlns:xlink="http://www.w3.org/1999/xlink">
<g id="graph0" class="graph" transform="scale(1 1) rotate(0) translate(4 184)">
<title>gantry</title>
<polygon fill="white" stroke="transparent" points="-4,4 -4,-184 307.5,-184 307.5,4 -4,4"/>
<!-- pipeline_b_step_0 -->
<g id="node1" class="node">
<title>pipeline_b_step_0</title>
<polygon fill="none" stroke="black" points="143,-180 0,-180 0,-144 143,-144 143,-180"/>
<text text-anchor="middle" x="71.5" y="-158.3" font-family="Times,serif" font-size="14.00">pipeline_b_step_0</text>
</g>
<!-- pipeline_b_step_1 -->
<g id="node2" class="node">
<title>pipeline_b_step_1</title>
<polygon fill="none" stroke="black" points="143,-108 0,-108 0,-72 143,-72 143,-108"/>
<text text-anchor="middle" x="71.5" y="-86.3" font-family="Times,serif" font-size="14.00">pipeline_b_step_1</text>
</g>
<!-- pipeline_b_step_0&#45;&gt;pipeline_b_step_1 -->
<g id="edge1" class="edge">
<title>pipeline_b_step_0&#45;&gt;pipeline_b_step_1</title>
<path fill="none" stroke="black" d="M71.5,-143.7C71.5,-135.98 71.5,-126.71 71.5,-118.11"/>
<polygon fill="black" stroke="black" points="75,-118.1 71.5,-108.1 68,-118.1 75,-118.1"/>
</g>
<!-- pipeline_b_step_2 -->
<g id="node3" class="node">
<title>pipeline_b_step_2</title>
<polygon fill="none" stroke="black" points="143,-36 0,-36 0,0 143,0 143,-36"/>
<text text-anchor="middle" x="71.5" y="-14.3" font-family="Times,serif" font-size="14.00">pipeline_b_step_2</text>
</g>
<!-- pipeline_b_step_1&#45;&gt;pipeline_b_step_2 -->
<g id="edge2" class="edge">
<title>pipeline_b_step_1&#45;&gt;pipeline_b_step_2</title>
<path fill="none" stroke="black" d="M71.5,-71.7C71.5,-63.98 71.5,-54.71 71.5,-46.11"/>
<polygon fill="black" stroke="black" points="75,-46.1 71.5,-36.1 68,-46.1 75,-46.1"/>
</g>
<!-- pipeline_a_step_0 -->
<g id="node4" class="node">
<title>pipeline_a_step_0</title>
<polygon fill="none" stroke="black" points="303.5,-180 161.5,-180 161.5,-144 303.5,-144 303.5,-180"/>
<text text-anchor="middle" x="232.5" y="-158.3" font-family="Times,serif" font-size="14.00">pipeline_a_step_0</text>
</g>
<!-- pipeline_a_step_1 -->
<g id="node5" class="node">
<title>pipeline_a_step_1</title>
<polygon fill="none" stroke="black" points="303.5,-108 161.5,-108 161.5,-72 303.5,-72 303.5,-108"/>
<text text-anchor="middle" x="232.5" y="-86.3" font-family="Times,serif" font-size="14.00">pipeline_a_step_1</text>
</g>
<!-- pipeline_a_step_0&#45;&gt;pipeline_a_step_1 -->
<g id="edge3" class="edge">
<title>pipeline_a_step_0&#45;&gt;pipeline_a_step_1</title>
<path fill="none" stroke="black" d="M232.5,-143.7C232.5,-135.98 232.5,-126.71 232.5,-118.11"/>
<polygon fill="black" stroke="black" points="236,-118.1 232.5,-108.1 229,-118.1 236,-118.1"/>
</g>
<!-- pipeline_a_step_2 -->
<g id="node6" class="node">
<title>pipeline_a_step_2</title>
<polygon fill="none" stroke="black" points="303.5,-36 161.5,-36 161.5,0 303.5,0 303.5,-36"/>
<text text-anchor="middle" x="232.5" y="-14.3" font-family="Times,serif" font-size="14.00">pipeline_a_step_2</text>
</g>
<!-- pipeline_a_step_1&#45;&gt;pipeline_a_step_2 -->
<g id="edge4" class="edge">
<title>pipeline_a_step_1&#45;&gt;pipeline_a_step_2</title>
<path fill="none" stroke="black" d="M232.5,-71.7C232.5,-63.98 232.5,-54.71 232.5,-46.11"/>
<polygon fill="black" stroke="black" points="236,-46.1 232.5,-36.1 229,-46.1 236,-46.1"/>
</g>
</g>
</svg>
