<?xml version="1.0" encoding="UTF-8" standalone="no"?>
<!DOCTYPE svg PUBLIC "-//W3C//DTD SVG 1.1//EN"
 "http://www.w3.org/Graphics/SVG/1.1/DTD/svg11.dtd">
<!-- Generated by graphviz version 2.40.1 (0)
 -->
<!-- Title: gantry Pages: 1 -->
<svg width="268pt" height="476pt"
 viewBox="0.00 0.00 268.00 476.00" xmlns="http://www.w3.org/2000/svg" xmlns:xlink="http://www.w3.org/1999/xlink">
<g id="graph0" class="graph" transform="scale(1 1) rotate(0) translate(4 472)">
<title>gantry</title>
<polygon fill="#ffffff" stroke="transparent" points="-4,4 -4,-472 264,-472 264,4 -4,4"/>
<!-- pre_prepare_1 -->
<g id="node1" class="node">
<title>pre_prepare_1</title>
<polygon fill="none" stroke="#000000" points="121,-468 0,-468 0,-432 121,-432 121,-468"/>
<text text-anchor="middle" x="60.5" y="-446.3" font-family="Times,serif" font-size="14.00" fill="#000000">pre_prepare_1</text>
</g>
<!-- pre_prepare_0 -->
<g id="node2" class="node">
<title>pre_prepare_0</title>
<polygon fill="none" stroke="#000000" points="260,-468 139,-468 139,-432 260,-432 260,-468"/>
<text text-anchor="middle" x="199.5" y="-446.3" font-family="Times,serif" font-size="14.00" fill="#000000">pre_prepare_0</text>
</g>
<!-- prepare_new_service_version -->
<g id="node3" class="node">
<title>prepare_new_service_version</title>
<polygon fill="none" stroke="#000000" points="244,-396 15,-396 15,-360 244,-360 244,-396"/>
<text text-anchor="middle" x="129.5" y="-374.3" font-family="Times,serif" font-size="14.00" fill="#000000">prepare_new_service_version</text>
</g>
<!-- prepare_new_service_version&#45;&gt;pre_prepare_1 -->
<g id="edge2" class="edge">
<title>prepare_new_service_version&#45;&gt;pre_prepare_1</title>
<path fill="none" stroke="#000000" d="M112.0884,-396.1686C103.979,-404.6306 94.1844,-414.8511 85.318,-424.1029"/>
<polygon fill="#000000" stroke="#000000" points="82.5382,-421.9451 78.146,-431.5867 87.5921,-426.7885 82.5382,-421.9451"/>
</g>
<!-- prepare_new_service_version&#45;&gt;pre_prepare_0 -->
<g id="edge1" class="edge">
<title>prepare_new_service_version&#45;&gt;pre_prepare_0</title>
<path fill="none" stroke="#000000" d="M147.164,-396.1686C155.4732,-404.7152 165.5264,-415.0557 174.5918,-424.3802"/>
<polygon fill="#000000" stroke="#000000" points="172.1179,-426.8565 181.5982,-431.5867 177.1369,-421.977 172.1179,-426.8565"/>
</g>
<!-- new_service -->
<g id="node4" class="node">
<title>new_service</title>
<ellipse fill="none" stroke="#000000" cx="129.5" cy="-306" rx="68.4888" ry="18"/>
<text text-anchor="middle" x="129.5" y="-302.3" font-family="Times,serif" font-size="14.00" fill="#000000">new_service</text>
</g>
<!-- new_service&#45;&gt;prepare_new_service_version -->
<g id="edge3" class="edge">
<title>new_service&#45;&gt;prepare_new_service_version</title>
<path fill="none" stroke="#000000" d="M129.5,-324.1686C129.5,-331.869 129.5,-341.0257 129.5,-349.5834"/>
<polygon fill="#000000" stroke="#000000" points="126.0001,-349.5867 129.5,-359.5867 133.0001,-349.5868 126.0001,-349.5867"/>
</g>
<!-- wait_for_new_service -->
<g id="node5" class="node">
<title>wait_for_new_service</title>
<polygon fill="none" stroke="#000000" points="215,-252 44,-252 44,-216 215,-216 215,-252"/>
<text text-anchor="middle" x="129.5" y="-230.3" font-family="Times,serif" font-size="14.00" fill="#000000">wait_for_new_service</text>
</g>
<!-- wait_for_new_service&#45;&gt;new_service -->
<g id="edge4" class="edge">
<title>wait_for_new_service&#45;&gt;new_service</title>
<path fill="none" stroke="#000000" d="M129.5,-252.1686C129.5,-259.869 129.5,-269.0257 129.5,-277.5834"/>
<polygon fill="#000000" stroke="#000000" points="126.0001,-277.5867 129.5,-287.5867 133.0001,-277.5868 126.0001,-277.5867"/>
</g>
<!-- test_new_service -->
<g id="node6" class="node">
<title>test_new_service</title>
<polygon fill="none" stroke="#000000" points="199.5,-180 59.5,-180 59.5,-144 199.5,-144 199.5,-180"/>
<text text-anchor="middle" x="129.5" y="-158.3" font-family="Times,serif" font-size="14.00" fill="#000000">test_new_service</text>
</g>
<!-- test_new_service&#45;&gt;wait_for_new_service -->
<g id="edge5" class="edge">
<title>test_new_service&#45;&gt;wait_for_new_service</title>
<path fill="none" stroke="#000000" d="M129.5,-180.1686C129.5,-187.869 129.5,-197.0257 129.5,-205.5834"/>
<polygon fill="#000000" stroke="#000000" points="126.0001,-205.5867 129.5,-215.5867 133.0001,-205.5868 126.0001,-205.5867"/>
</g>
<!-- move_data_to_active_service -->
<g id="node7" class="node">
<title>move_data_to_active_service</title>
<polygon fill="none" stroke="#000000" points="242.5,-108 16.5,-108 16.5,-72 242.5,-72 242.5,-108"/>
<text text-anchor="middle" x="129.5" y="-86.3" font-family="Times,serif" font-size="14.00" fill="#000000">move_data_to_active_service</text>
</g>
<!-- move_data_to_active_service&#45;&gt;test_new_service -->
<g id="edge6" class="edge">
<title>move_data_to_active_service&#45;&gt;test_new_service</title>
<path fill="none" stroke="#000000" d="M129.5,-108.1686C129.5,-115.869 129.5,-125.0257 129.5,-133.5834"/>
<polygon fill="#000000" stroke="#000000" points="126.0001,-133.5867 129.5,-143.5867 133.0001,-133.5868 126.0001,-133.5867"/>
</g>
<!-- active_service -->
<g id="node8" class="node">
<title>active_service</title>
<ellipse fill="none" stroke="#000000" cx="129.5" cy="-18" rx="77.1866" ry="18"/>
<text text-anchor="middle" x="129.5" y="-14.3" font-family="Times,serif" font-size="14.00" fill="#000000">active_service</text>
</g>
<!-- active_service&#45;&gt;move_data_to_active_service -->
<g id="edge7" class="edge">
<title>active_service&#45;&gt;move_data_to_active_service</title>
<path fill="none" stroke="#000000" d="M129.5,-36.1686C129.5,-43.869 129.5,-53.0257 129.5,-61.5834"/>
<polygon fill="#000000" stroke="#000000" points="126.0001,-61.5867 129.5,-71.5867 133.0001,-61.5868 126.0001,-61.5867"/>
</g>
</g>
</svg>
