<?xml version="1.0" encoding="UTF-8" standalone="no"?>
<!DOCTYPE svg PUBLIC "-//W3C//DTD SVG 1.1//EN"
 "http://www.w3.org/Graphics/SVG/1.1/DTD/svg11.dtd">
<!-- Generated by graphviz version 2.42.4 (0)
 -->
<!-- Title: gantry Pages: 1 -->
<svg width="264pt" height="476pt"
 viewBox="0.00 0.00 264.00 476.00" xmlns="http://www.w3.org/2000/svg" xmlns:xlink="http://www.w3.org/1999/xlink">
<g id="graph0" class="graph" transform="scale(1 1) rotate(0) translate(4 472)">
<title>gantry</title>
<polygon fill="white" stroke="transparent" points="-4,4 -4,-472 260,-472 260,4 -4,4"/>
<!-- pre_prepare_1 -->
<g id="node1" class="node">
<title>pre_prepare_1</title>
<polygon fill="none" stroke="black" points="119,-468 0,-468 0,-432 119,-432 119,-468"/>
<text text-anchor="middle" x="59.5" y="-446.3" font-family="Times,serif" font-size="14.00">pre_prepare_1</text>
</g>
<!-- prepare_new_service_version -->
<g id="node3" class="node">
<title>prepare_new_service_version</title>
<polygon fill="none" stroke="black" points="240.5,-396 14.5,-396 14.5,-360 240.5,-360 240.5,-396"/>
<text text-anchor="middle" x="127.5" y="-374.3" font-family="Times,serif" font-size="14.00">prepare_new_service_version</text>
</g>
<!-- pre_prepare_1&#45;&gt;prepare_new_service_version -->
<g id="edge2" class="edge">
<title>pre_prepare_1&#45;&gt;prepare_new_service_version</title>
<path fill="none" stroke="black" d="M76.31,-431.7C84.63,-423.14 94.81,-412.66 103.89,-403.3"/>
<polygon fill="black" stroke="black" points="106.43,-405.72 110.88,-396.1 101.41,-400.84 106.43,-405.72"/>
</g>
<!-- pre_prepare_0 -->
<g id="node2" class="node">
<title>pre_prepare_0</title>
<polygon fill="none" stroke="black" points="256,-468 137,-468 137,-432 256,-432 256,-468"/>
<text text-anchor="middle" x="196.5" y="-446.3" font-family="Times,serif" font-size="14.00">pre_prepare_0</text>
</g>
<!-- pre_prepare_0&#45;&gt;prepare_new_service_version -->
<g id="edge1" class="edge">
<title>pre_prepare_0&#45;&gt;prepare_new_service_version</title>
<path fill="none" stroke="black" d="M179.44,-431.7C171,-423.14 160.68,-412.66 151.46,-403.3"/>
<polygon fill="black" stroke="black" points="153.87,-400.77 144.36,-396.1 148.89,-405.68 153.87,-400.77"/>
</g>
<!-- new_service -->
<g id="node4" class="node">
<title>new_service</title>
<ellipse fill="none" stroke="black" cx="127.5" cy="-306" rx="67.69" ry="18"/>
<text text-anchor="middle" x="127.5" y="-302.3" font-family="Times,serif" font-size="14.00">new_service</text>
</g>
<!-- prepare_new_service_version&#45;&gt;new_service -->
<g id="edge3" class="edge">
<title>prepare_new_service_version&#45;&gt;new_service</title>
<path fill="none" stroke="black" d="M127.5,-359.7C127.5,-351.98 127.5,-342.71 127.5,-334.11"/>
<polygon fill="black" stroke="black" points="131,-334.1 127.5,-324.1 124,-334.1 131,-334.1"/>
</g>
<!-- wait_for_new_service -->
<g id="node5" class="node">
<title>wait_for_new_service</title>
<polygon fill="none" stroke="black" points="211.5,-252 43.5,-252 43.5,-216 211.5,-216 211.5,-252"/>
<text text-anchor="middle" x="127.5" y="-230.3" font-family="Times,serif" font-size="14.00">wait_for_new_service</text>
</g>
<!-- new_service&#45;&gt;wait_for_new_service -->
<g id="edge4" class="edge">
<title>new_service&#45;&gt;wait_for_new_service</title>
<path fill="none" stroke="black" d="M127.5,-287.7C127.5,-279.98 127.5,-270.71 127.5,-262.11"/>
<polygon fill="black" stroke="black" points="131,-262.1 127.5,-252.1 124,-262.1 131,-262.1"/>
</g>
<!-- test_new_service -->
<g id="node6" class="node">
<title>test_new_service</title>
<polygon fill="none" stroke="black" points="196.5,-180 58.5,-180 58.5,-144 196.5,-144 196.5,-180"/>
<text text-anchor="middle" x="127.5" y="-158.3" font-family="Times,serif" font-size="14.00">test_new_service</text>
</g>
<!-- wait_for_new_service&#45;&gt;test_new_service -->
<g id="edge5" class="edge">
<title>wait_for_new_service&#45;&gt;test_new_service</title>
<path fill="none" stroke="black" d="M127.5,-215.7C127.5,-207.98 127.5,-198.71 127.5,-190.11"/>
<polygon fill="black" stroke="black" points="131,-190.1 127.5,-180.1 124,-190.1 131,-190.1"/>
</g>
<!-- move_data_to_active_service -->
<g id="node7" class="node">
<title>move_data_to_active_service</title>
<polygon fill="none" stroke="black" points="238,-108 17,-108 17,-72 238,-72 238,-108"/>
<text text-anchor="middle" x="127.5" y="-86.3" font-family="Times,serif" font-size="14.00">move_data_to_active_service</text>
</g>
<!-- test_new_service&#45;&gt;move_data_to_active_service -->
<g id="edge6" class="edge">
<title>test_new_service&#45;&gt;move_data_to_active_service</title>
<path fill="none" stroke="black" d="M127.5,-143.7C127.5,-135.98 127.5,-126.71 127.5,-118.11"/>
<polygon fill="black" stroke="black" points="131,-118.1 127.5,-108.1 124,-118.1 131,-118.1"/>
</g>
<!-- active_service -->
<g id="node8" class="node">
<title>active_service</title>
<ellipse fill="none" stroke="black" cx="127.5" cy="-18" rx="76.09" ry="18"/>
<text text-anchor="middle" x="127.5" y="-14.3" font-family="Times,serif" font-size="14.00">active_service</text>
</g>
<!-- move_data_to_active_service&#45;&gt;active_service -->
<g id="edge7" class="edge">
<title>move_data_to_active_service&#45;&gt;active_service</title>
<path fill="none" stroke="black" d="M127.5,-71.7C127.5,-63.98 127.5,-54.71 127.5,-46.11"/>
<polygon fill="black" stroke="black" points="131,-46.1 127.5,-36.1 124,-46.1 131,-46.1"/>
</g>
</g>
</svg>
