<?xml version="1.0" encoding="UTF-8" standalone="no"?>
<!DOCTYPE svg PUBLIC "-//W3C//DTD SVG 1.1//EN"
 "http://www.w3.org/Graphics/SVG/1.1/DTD/svg11.dtd">
<!-- Generated by graphviz version 2.40.1 (0)
 -->
<!-- Title: gantry Pages: 1 -->
<svg width="237pt" height="476pt"
 viewBox="0.00 0.00 237.00 476.00" xmlns="http://www.w3.org/2000/svg" xmlns:xlink="http://www.w3.org/1999/xlink">
<g id="graph0" class="graph" transform="scale(1 1) rotate(0) translate(4 472)">
<title>gantry</title>
<polygon fill="#ffffff" stroke="transparent" points="-4,4 -4,-472 233,-472 233,4 -4,4"/>
<!-- otherthing -->
<g id="node1" class="node">
<title>otherthing</title>
<polygon fill="none" stroke="#000000" points="105.5,-468 13.5,-468 13.5,-432 105.5,-432 105.5,-468"/>
<text text-anchor="middle" x="59.5" y="-446.3" font-family="Times,serif" font-size="14.00" fill="#000000">otherthing</text>
</g>
<!-- something -->
<g id="node2" class="node">
<title>something</title>
<polygon fill="none" stroke="#000000" points="215.5,-468 123.5,-468 123.5,-432 215.5,-432 215.5,-468"/>
<text text-anchor="middle" x="169.5" y="-446.3" font-family="Times,serif" font-size="14.00" fill="#000000">something</text>
</g>
<!-- prepare_new_service_version -->
<g id="node3" class="node">
<title>prepare_new_service_version</title>
<polygon fill="none" stroke="#000000" points="229,-396 0,-396 0,-360 229,-360 229,-396"/>
<text text-anchor="middle" x="114.5" y="-374.3" font-family="Times,serif" font-size="14.00" fill="#000000">prepare_new_service_version</text>
</g>
<!-- prepare_new_service_version&#45;&gt;otherthing -->
<g id="edge2" class="edge">
<title>prepare_new_service_version&#45;&gt;otherthing</title>
<path fill="none" stroke="#000000" d="M100.6212,-396.1686C94.2864,-404.4614 86.6616,-414.443 79.7074,-423.5467"/>
<polygon fill="#000000" stroke="#000000" points="76.8548,-421.5153 73.5657,-431.5867 82.4175,-425.7647 76.8548,-421.5153"/>
</g>
<!-- prepare_new_service_version&#45;&gt;something -->
<g id="edge1" class="edge">
<title>prepare_new_service_version&#45;&gt;something</title>
<path fill="none" stroke="#000000" d="M128.3788,-396.1686C134.7136,-404.4614 142.3384,-414.443 149.2926,-423.5467"/>
<polygon fill="#000000" stroke="#000000" points="146.5825,-425.7647 155.4343,-431.5867 152.1452,-421.5153 146.5825,-425.7647"/>
</g>
<!-- new_service -->
<g id="node4" class="node">
<title>new_service</title>
<ellipse fill="none" stroke="#000000" cx="114.5" cy="-306" rx="68.4888" ry="18"/>
<text text-anchor="middle" x="114.5" y="-302.3" font-family="Times,serif" font-size="14.00" fill="#000000">new_service</text>
</g>
<!-- new_service&#45;&gt;prepare_new_service_version -->
<g id="edge3" class="edge">
<title>new_service&#45;&gt;prepare_new_service_version</title>
<path fill="none" stroke="#000000" d="M114.5,-324.1686C114.5,-331.869 114.5,-341.0257 114.5,-349.5834"/>
<polygon fill="#000000" stroke="#000000" points="111.0001,-349.5867 114.5,-359.5867 118.0001,-349.5868 111.0001,-349.5867"/>
</g>
<!-- wait_for_new_service -->
<g id="node5" class="node">
<title>wait_for_new_service</title>
<polygon fill="none" stroke="#000000" points="200,-252 29,-252 29,-216 200,-216 200,-252"/>
<text text-anchor="middle" x="114.5" y="-230.3" font-family="Times,serif" font-size="14.00" fill="#000000">wait_for_new_service</text>
</g>
<!-- wait_for_new_service&#45;&gt;new_service -->
<g id="edge4" class="edge">
<title>wait_for_new_service&#45;&gt;new_service</title>
<path fill="none" stroke="#000000" d="M114.5,-252.1686C114.5,-259.869 114.5,-269.0257 114.5,-277.5834"/>
<polygon fill="#000000" stroke="#000000" points="111.0001,-277.5867 114.5,-287.5867 118.0001,-277.5868 111.0001,-277.5867"/>
</g>
<!-- test_new_service -->
<g id="node6" class="node">
<title>test_new_service</title>
<polygon fill="none" stroke="#000000" points="184.5,-180 44.5,-180 44.5,-144 184.5,-144 184.5,-180"/>
<text text-anchor="middle" x="114.5" y="-158.3" font-family="Times,serif" font-size="14.00" fill="#000000">test_new_service</text>
</g>
<!-- test_new_service&#45;&gt;wait_for_new_service -->
<g id="edge5" class="edge">
<title>test_new_service&#45;&gt;wait_for_new_service</title>
<path fill="none" stroke="#000000" d="M114.5,-180.1686C114.5,-187.869 114.5,-197.0257 114.5,-205.5834"/>
<polygon fill="#000000" stroke="#000000" points="111.0001,-205.5867 114.5,-215.5867 118.0001,-205.5868 111.0001,-205.5867"/>
</g>
<!-- move_data_to_active_service -->
<g id="node7" class="node">
<title>move_data_to_active_service</title>
<polygon fill="none" stroke="#000000" points="227.5,-108 1.5,-108 1.5,-72 227.5,-72 227.5,-108"/>
<text text-anchor="middle" x="114.5" y="-86.3" font-family="Times,serif" font-size="14.00" fill="#000000">move_data_to_active_service</text>
</g>
<!-- move_data_to_active_service&#45;&gt;test_new_service -->
<g id="edge6" class="edge">
<title>move_data_to_active_service&#45;&gt;test_new_service</title>
<path fill="none" stroke="#000000" d="M114.5,-108.1686C114.5,-115.869 114.5,-125.0257 114.5,-133.5834"/>
<polygon fill="#000000" stroke="#000000" points="111.0001,-133.5867 114.5,-143.5867 118.0001,-133.5868 111.0001,-133.5867"/>
</g>
<!-- active_service -->
<g id="node8" class="node">
<title>active_service</title>
<ellipse fill="none" stroke="#000000" cx="114.5" cy="-18" rx="77.1866" ry="18"/>
<text text-anchor="middle" x="114.5" y="-14.3" font-family="Times,serif" font-size="14.00" fill="#000000">active_service</text>
</g>
<!-- active_service&#45;&gt;move_data_to_active_service -->
<g id="edge7" class="edge">
<title>active_service&#45;&gt;move_data_to_active_service</title>
<path fill="none" stroke="#000000" d="M114.5,-36.1686C114.5,-43.869 114.5,-53.0257 114.5,-61.5834"/>
<polygon fill="#000000" stroke="#000000" points="111.0001,-61.5867 114.5,-71.5867 118.0001,-61.5868 111.0001,-61.5867"/>
</g>
</g>
</svg>
