<?xml version="1.0" encoding="UTF-8" standalone="no"?>
<!DOCTYPE svg PUBLIC "-//W3C//DTD SVG 1.1//EN"
 "http://www.w3.org/Graphics/SVG/1.1/DTD/svg11.dtd">
<!-- Generated by graphviz version 2.40.1 (0)
 -->
<!-- Title: gantry Pages: 1 -->
<svg width="134pt" height="188pt"
 viewBox="0.00 0.00 134.00 188.00" xmlns="http://www.w3.org/2000/svg" xmlns:xlink="http://www.w3.org/1999/xlink">
<g id="graph0" class="graph" transform="scale(1 1) rotate(0) translate(4 184)">
<title>gantry</title>
<polygon fill="#ffffff" stroke="transparent" points="-4,4 -4,-184 130,-184 130,4 -4,4"/>
<!-- a -->
<g id="node1" class="node">
<title>a</title>
<polygon fill="none" stroke="#000000" points="90,-180 36,-180 36,-144 90,-144 90,-180"/>
<text text-anchor="middle" x="63" y="-158.3" font-family="Times,serif" font-size="14.00" fill="#000000">a</text>
</g>
<!-- b -->
<g id="node2" class="node">
<title>b</title>
<polygon fill="none" stroke="#000000" points="54,-108 0,-108 0,-72 54,-72 54,-108"/>
<text text-anchor="middle" x="27" y="-86.3" font-family="Times,serif" font-size="14.00" fill="#000000">b</text>
</g>
<!-- b&#45;&gt;a -->
<g id="edge1" class="edge">
<title>b&#45;&gt;a</title>
<path fill="none" stroke="#000000" d="M36.0843,-108.1686C40.0615,-116.1229 44.8155,-125.631 49.2139,-134.4277"/>
<polygon fill="#000000" stroke="#000000" points="46.1907,-136.2077 53.7934,-143.5867 52.4517,-133.0772 46.1907,-136.2077"/>
</g>
<!-- c -->
<g id="node3" class="node">
<title>c</title>
<polygon fill="none" stroke="#000000" points="126,-108 72,-108 72,-72 126,-72 126,-108"/>
<text text-anchor="middle" x="99" y="-86.3" font-family="Times,serif" font-size="14.00" fill="#000000">c</text>
</g>
<!-- c&#45;&gt;a -->
<g id="edge2" class="edge">
<title>c&#45;&gt;a</title>
<path fill="none" stroke="#000000" d="M89.9157,-108.1686C85.9385,-116.1229 81.1845,-125.631 76.7861,-134.4277"/>
<polygon fill="#000000" stroke="#000000" points="73.5483,-133.0772 72.2066,-143.5867 79.8093,-136.2077 73.5483,-133.0772"/>
</g>
<!-- d -->
<g id="node4" class="node">
<title>d</title>
<polygon fill="none" stroke="#000000" points="90,-36 36,-36 36,0 90,0 90,-36"/>
<text text-anchor="middle" x="63" y="-14.3" font-family="Times,serif" font-size="14.00" fill="#000000">d</text>
</g>
<!-- d&#45;&gt;b -->
<g id="edge3" class="edge">
<title>d&#45;&gt;b</title>
<path fill="none" stroke="#000000" d="M53.9157,-36.1686C49.9385,-44.1229 45.1845,-53.631 40.7861,-62.4277"/>
<polygon fill="#000000" stroke="#000000" points="37.5483,-61.0772 36.2066,-71.5867 43.8093,-64.2077 37.5483,-61.0772"/>
</g>
<!-- d&#45;&gt;c -->
<g id="edge4" class="edge">
<title>d&#45;&gt;c</title>
<path fill="none" stroke="#000000" d="M72.0843,-36.1686C76.0615,-44.1229 80.8155,-53.631 85.2139,-62.4277"/>
<polygon fill="#000000" stroke="#000000" points="82.1907,-64.2077 89.7934,-71.5867 88.4517,-61.0772 82.1907,-64.2077"/>
</g>
</g>
</svg>
